<?xml version="1.0" encoding="UTF-8"?>
<svg width="12px" height="20px" viewBox="0 0 12 20" version="1.1" xmlns="http://www.w3.org/2000/svg" xmlns:xlink="http://www.w3.org/1999/xlink">
    <!-- Generator: Sketch 41 (35326) - http://www.bohemiancoding.com/sketch -->
    <title>Group 9</title>
    <desc>Created with Sketch.</desc>
    <defs></defs>
    <g id="Page-1" stroke="none" stroke-width="1" fill="none" fill-rule="evenodd">
        <g id="Main" transform="translate(-214.000000, -5447.000000)" fill="#FFFFFF">
            <g id="contacts" transform="translate(0.000000, 4717.000000)">
                <g id="Group-9" transform="translate(214.000000, 730.000000)">
                    <path d="M5.999,1 C3.242,1 0.999,3.243 0.999,6 C0.999,9.254 2.462,12.664 3.69,14.951 C4.592,16.632 5.499,17.965 5.999,18.661 C6.501,17.962 7.414,16.621 8.317,14.935 C9.54,12.652 10.999,9.248 10.999,6 C10.999,3.243 8.756,1 5.999,1 L5.999,1 Z M5.999,20 C5.846,20 5.701,19.93 5.606,19.809 C5.549,19.736 4.188,17.995 2.809,15.424 C1.997,13.911 1.349,12.425 0.884,11.008 C0.297,9.221 0,7.536 0,6 C0,2.692 2.692,0 6,0 C9.308,0 12,2.692 12,6 C12,7.536 11.702,9.22 11.116,11.008 C10.651,12.425 10.003,13.911 9.191,15.424 C7.811,17.995 6.451,19.736 6.394,19.809 C6.299,19.93 6.154,20 6.001,20 L5.999,20 Z" id="Fill-1535"></path>
                    <path d="M5.999,4 C4.896,4 3.999,4.896 3.999,6 C3.999,7.104 4.896,8 5.999,8 C7.102,8 7.999,7.104 7.999,6 C7.999,4.896 7.102,4 5.999,4 M5.999,9 C4.345,9 2.999,7.654 2.999,6 C2.999,4.346 4.345,3 5.999,3 C7.653,3 8.999,4.346 8.999,6 C8.999,7.654 7.653,9 5.999,9" id="Fill-1536"></path>
                </g>
            </g>
        </g>
    </g>
</svg>