<svg width="12" height="20" viewBox="0 0 12 20" xmlns="http://www.w3.org/2000/svg"><title>Group 9</title><g fill="#FFF" fill-rule="evenodd"><path d="M5.999 1c-2.757 0-5 2.243-5 5 0 3.254 1.463 6.664 2.691 8.951a34.411 34.411 0 0 0 2.309 3.71 34.38 34.38 0 0 0 2.318-3.726C9.54 12.652 10.999 9.248 10.999 6c0-2.757-2.243-5-5-5zm0 19a.5.5 0 0 1-.393-.191c-.057-.073-1.418-1.814-2.797-4.385-.812-1.513-1.46-2.999-1.925-4.416C.297 9.221 0 7.536 0 6c0-3.308 2.692-6 6-6s6 2.692 6 6c0 1.536-.298 3.22-.884 5.008-.465 1.417-1.113 2.903-1.925 4.416-1.38 2.571-2.74 4.312-2.797 4.385a.5.5 0 0 1-.393.191h-.002z"/><path d="M5.999 4c-1.103 0-2 .896-2 2s.897 2 2 2 2-.896 2-2-.897-2-2-2m0 5c-1.654 0-3-1.346-3-3s1.346-3 3-3 3 1.346 3 3-1.346 3-3 3"/></g></svg>