<svg width="19" height="12" viewBox="0 0 19 12" xmlns="http://www.w3.org/2000/svg"><title>Group 15</title><path d="M17.5 11h-16a.498.498 0 0 1-.5-.496V2l7.391 4.891c.311.206.71.309 1.109.309s.798-.103 1.109-.309L18 2v8.504a.498.498 0 0 1-.5.496zm-.586-10c.03 0 .057.003.086.008L9.549 5.86c-.287.187-.81.187-1.098 0L1 1.008A.5.5 0 0 1 1.086 1h15.829-.001zm.586-1h-16C.673 0 0 .673 0 1.5v9c0 .827.673 1.5 1.5 1.5h16c.827 0 1.5-.673 1.5-1.5v-9c0-.827-.673-1.5-1.5-1.5z" fill="#FFF" fill-rule="evenodd"/></svg>