<svg width="20" height="20" viewBox="0 0 20 20" xmlns="http://www.w3.org/2000/svg"><title>Group 16</title><path d="M3.981 1c-.269.005-.989.333-1.773 1.055C1.463 2.741 1.001 3.486 1.001 4c0 6.729 8.264 15 14.986 15 .513 0 1.258-.465 1.944-1.213.723-.788 1.051-1.512 1.056-1.781-.032-.19-.558-.929-1.997-2.037-1.238-.952-2.24-1.463-2.498-1.469-.018.005-.13.048-.357.336-.197.251-.408.594-.613.926-.561.911-1.089 1.772-1.858 1.772a.97.97 0 0 1-.363-.071c-2.625-1.05-5.729-4.154-6.779-6.779-.126-.315-.146-.809.474-1.372.33-.298.786-.578 1.228-.85.332-.204.676-.415.926-.613.288-.227.331-.339.336-.357-.007-.258-.517-1.261-1.469-2.498C4.909 1.555 4.169 1.03 3.98.997L3.981 1zm12.006 19c-1.772 0-3.655-.502-5.6-1.492-1.793-.913-3.564-2.22-5.122-3.779-1.558-1.561-2.863-3.334-3.775-5.128C.502 7.655 0 5.771 0 4c0-1.148 1.07-2.257 1.529-2.68C2.19.711 3.23 0 3.986 0c.376 0 .816.246 1.387.774.424.394.904.928 1.382 1.544.289.372 1.731 2.271 1.731 3.182 0 .747-.845 1.267-1.739 1.816-.346.212-.703.432-.961.639-.276.221-.326.338-.333.364.949 2.366 3.85 5.267 6.215 6.215.021-.007.138-.053.363-.333.207-.258.427-.616.638-.961.551-.894 1.07-1.739 1.817-1.739.911 0 2.809 1.441 3.182 1.73.616.479 1.15.958 1.543 1.383.529.57.775 1.011.775 1.387 0 .756-.711 1.799-1.319 2.463-.424.462-1.533 1.537-2.681 1.537l.001-.001z" fill="#FFF" fill-rule="evenodd"/></svg>