<?xml version="1.0" encoding="UTF-8"?>
<svg width="196px" height="87px" viewBox="0 0 196 87" version="1.1" xmlns="http://www.w3.org/2000/svg" xmlns:xlink="http://www.w3.org/1999/xlink">
    <!-- Generator: Sketch 41 (35326) - http://www.bohemiancoding.com/sketch -->
    <title>Grouplogo</title>
    <desc>Created with Sketch.</desc>
    <defs>
        <path d="M57.6355064,84.6517669 C53.2035981,86.1737792 48.4482861,87 43.5,87 C19.4756134,87 0,67.5243866 0,43.5 C0,19.4756134 19.4756134,0 43.5,0 C67.5243866,0 87,19.4756134 87,43.5 C87,46.2299463 86.748525,48.9011574 86.2674766,51.491732 C82.3202141,44.0605483 74.5010842,39 65.5,39 C52.5213084,39 42,49.5213084 42,62.5 C42,72.7203998 48.5244468,81.4169335 57.6355064,84.6517669 Z" id="path-1"></path>
    </defs>
    <g id="Page-1" stroke="none" stroke-width="1" fill="none" fill-rule="evenodd">
        <g id="Artboard" transform="translate(-97.000000, -157.000000)">
            <g id="Group" transform="translate(97.000000, 157.000000)">
                <path d="M122.429688,28.4765625 C124.742199,29.3515669 126.601555,30.7968649 128.007812,32.8125 C129.47657,34.8593852 130.210938,37.1328 130.210938,39.6328125 C130.210938,42.929704 129.023449,45.7343634 126.648438,48.046875 C124.273426,50.3906367 121.421892,51.5625 118.09375,51.5625 C114.781233,51.5625 111.953137,50.414074 109.609375,48.1171875 C107.249988,45.8359261 106.039063,43.0703288 105.976562,39.8203125 L108.390625,39.8203125 C108.453125,42.3984504 109.429678,44.5937409 111.320312,46.40625 C113.210947,48.2343841 115.468737,49.1484375 118.09375,49.1484375 C120.765638,49.1484375 123.039053,48.2109469 124.914062,46.3359375 C126.820322,44.4765532 127.773438,42.2422005 127.773438,39.6328125 C127.773438,36.9921743 126.828134,34.7421968 124.9375,32.8828125 C123.03124,31.0078031 120.742201,30.0703125 118.070312,30.0703125 C116.414054,30.0703125 114.968756,29.5390678 113.734375,28.4765625 C113.546874,28.3203117 113.421875,28.2109378 113.359375,28.1484375 C112.046868,26.851556 111.398437,25.2890716 111.414062,23.4609375 C111.414062,21.6171783 112.070306,20.0468815 113.382812,18.75 C114.664069,17.4531185 116.226553,16.8046875 118.070312,16.8046875 C119.914072,16.8046875 121.499993,17.4531185 122.828125,18.75 C124.125006,20.0468815 124.773438,21.6171783 124.773438,23.4609375 L122.359375,23.4609375 C122.359375,22.2890566 121.937504,21.2890666 121.09375,20.4609375 C120.249996,19.6328084 119.242193,19.21875 118.070312,19.21875 C116.898432,19.21875 115.906254,19.6328084 115.09375,20.4609375 C114.265621,21.2890666 113.851562,22.2890566 113.851562,23.4609375 C113.851562,24.6015682 114.265621,25.5859334 115.09375,26.4140625 C115.906254,27.2421916 116.898432,27.65625 118.070312,27.65625 C119.554695,27.65625 121.007805,27.9296848 122.429688,28.4765625 Z M135.95,51.1171875 L133.489062,51.1171875 L133.489062,17.4140625 L135.95,17.4140625 L135.95,51.1171875 Z M143.45,38.8125 L165.504687,60.8671875 L162.035937,60.8671875 L139.98125,38.8125 L161.54375,17.3203125 L165.035937,17.3203125 L143.45,38.8125 Z M180.923437,40.453125 L168.782812,17.390625 L171.478125,17.390625 L182.11875,37.875 L192.782812,17.390625 L195.454687,17.390625 L183.384375,40.453125 L183.360937,51 L180.9,51 L180.923437,40.453125 Z" id="Sky" fill="#FFFFFF"></path>
                <path d="M72.302,72.472 C72.302,72.938669 72.3603327,73.3633314 72.477,73.746 C72.5936672,74.1286686 72.7593323,74.4599986 72.974,74.74 C73.1886677,75.0200014 73.4546651,75.2369992 73.772,75.391 C74.0893349,75.5450008 74.4533313,75.622 74.864,75.622 C75.2653353,75.622 75.6153318,75.5380008 75.914,75.37 C76.2126682,75.2019992 76.459999,74.9756681 76.656,74.691 C76.852001,74.4063319 76.9989995,74.0726686 77.097,73.69 C77.1950005,73.3073314 77.244,72.9060021 77.244,72.486 C77.244,72.0659979 77.1903339,71.660002 77.083,71.268 C76.9756661,70.875998 76.8193344,70.5283348 76.614,70.225 C76.4086656,69.9216651 76.1566682,69.6813342 75.858,69.504 C75.5593318,69.3266658 75.2186686,69.238 74.836,69.238 C74.3879978,69.238 74.0030016,69.3196658 73.681,69.483 C73.3589984,69.6463341 73.0953344,69.8726652 72.89,70.162 C72.6846656,70.4513348 72.5353338,70.7943313 72.442,71.191 C72.3486662,71.5876686 72.302,72.0146644 72.302,72.472 Z M77.216,74.544 C76.9733321,75.0293358 76.6536686,75.4283318 76.257,75.741 C75.8603313,76.0536682 75.3446698,76.21 74.71,76.21 C74.2526644,76.21 73.8350019,76.1166676 73.457,75.93 C73.0789981,75.7433324 72.7523347,75.484335 72.477,75.153 C72.2016653,74.821665 71.9893341,74.4273356 71.84,73.97 C71.6906659,73.5126644 71.616,73.013336 71.616,72.472 C71.616,71.8186634 71.7023325,71.2493358 71.875,70.764 C72.0476675,70.2786642 72.2786652,69.8773349 72.568,69.56 C72.8573348,69.2426651 73.1933314,69.0093341 73.576,68.86 C73.9586686,68.7106659 74.3646645,68.6406666 74.794,68.65 C75.1020015,68.65 75.3889987,68.7013328 75.655,68.804 C75.9210013,68.9066672 76.1566656,69.0419992 76.362,69.21 C76.5673344,69.3780008 76.7446659,69.5693323 76.894,69.784 C77.0433341,69.9986677 77.1599996,70.2226655 77.244,70.456 L77.244,66.2 C77.244,65.9013318 77.3513323,65.752 77.566,65.752 C77.7806677,65.752 77.888,65.9013318 77.888,66.2 L77.888,75.678 C77.888,75.9766682 77.7760011,76.126 77.552,76.126 C77.3279989,76.126 77.216,75.9766682 77.216,75.678 L77.216,74.544 Z M89.0559999,72.206 C89.0559999,71.8699983 89.0256669,71.5200018 88.9649999,71.156 C88.9043329,70.7919982 88.7900007,70.4630015 88.6219999,70.169 C88.4539991,69.8749985 88.2230014,69.6323343 87.9289999,69.441 C87.6349984,69.2496657 87.2546689,69.154 86.7879999,69.154 C86.3399977,69.154 85.9620014,69.2589989 85.6539999,69.469 C85.3459984,69.679001 85.0963342,69.9379985 84.9049999,70.246 C84.7136656,70.5540015 84.5783336,70.8853316 84.4989999,71.24 C84.4196662,71.5946684 84.3799999,71.9166652 84.3799999,72.206 L89.0559999,72.206 Z M86.8299999,76.28 C86.3073306,76.28 85.8523352,76.1726677 85.4649999,75.958 C85.0776646,75.7433323 84.7556679,75.4586684 84.4989999,75.104 C84.242332,74.7493316 84.0510005,74.3433356 83.9249999,73.886 C83.7989993,73.4286644 83.7359999,72.9620024 83.7359999,72.486 C83.7359999,72.0006642 83.8013326,71.524669 83.9319999,71.058 C84.0626672,70.591331 84.256332,70.1760018 84.5129999,69.812 C84.7696679,69.4479982 85.0916646,69.1563344 85.4789999,68.937 C85.8663352,68.7176656 86.316664,68.608 86.8299999,68.608 C87.3153357,68.608 87.7376648,68.6989991 88.0969999,68.881 C88.456335,69.0630009 88.7503321,69.3056651 88.9789999,69.609 C89.2076677,69.9123348 89.3779993,70.2646647 89.4899999,70.666 C89.6020005,71.0673353 89.6579999,71.4826645 89.6579999,71.912 C89.6579999,72.2200015 89.6183336,72.4276661 89.5389999,72.535 C89.4596662,72.6423339 89.3033344,72.696 89.0699999,72.696 L84.3799999,72.696 C84.3706665,73.0506684 84.4243327,73.4099982 84.5409999,73.774 C84.6576672,74.1380018 84.8256655,74.4646652 85.0449999,74.754 C85.2643343,75.0433348 85.5279984,75.2789991 85.8359999,75.461 C86.1440014,75.6430009 86.4846647,75.734 86.8579999,75.734 C87.3433357,75.734 87.7656648,75.6710006 88.1249999,75.545 C88.484335,75.4189994 88.8133317,75.1833351 89.1119999,74.838 C89.1960003,74.7446662 89.2729996,74.6863334 89.3429999,74.663 C89.4130003,74.6396665 89.4736663,74.6396665 89.5249999,74.663 C89.5763335,74.6863334 89.6159998,74.7236664 89.6439999,74.775 C89.672,74.8263336 89.6859999,74.8799997 89.6859999,74.936 C89.6859999,75.0200004 89.6230005,75.1389992 89.4969999,75.293 C89.3709993,75.4470008 89.1866678,75.5963326 88.9439999,75.741 C88.701332,75.8856674 88.4026683,76.0116661 88.0479999,76.119 C87.6933315,76.2263339 87.2873355,76.28 86.8299999,76.28 Z M98.3619998,75.636 C98.2779994,75.8226676 98.1986668,75.953333 98.1239998,76.028 C98.0493328,76.102667 97.9700002,76.14 97.8859998,76.14 C97.8019994,76.14 97.7226668,76.1120003 97.6479998,76.056 C97.5733328,75.9999997 97.484667,75.8600011 97.3819998,75.636 L94.9179998,69.378 C94.8153326,69.1539989 94.7896662,68.9883339 94.8409998,68.881 C94.8923334,68.7736661 94.9833325,68.72 95.1139998,68.72 C95.1886668,68.72 95.2493329,68.7526663 95.2959998,68.818 C95.3426667,68.8833337 95.3939995,68.9766661 95.4499998,69.098 L97.8719998,75.37 C98.2733351,74.3246614 98.6723312,73.2886718 99.0689998,72.262 C99.4656685,71.2353282 99.8599978,70.1993386 100.252,69.154 C100.317333,69.0233327 100.375666,68.920667 100.427,68.846 C100.478333,68.771333 100.541333,68.734 100.616,68.734 C100.746667,68.734 100.835333,68.7783329 100.882,68.867 C100.928667,68.9556671 100.91,69.1259987 100.826,69.378 L98.3619998,75.636 Z M111.574,72.206 C111.574,71.8699983 111.543667,71.5200018 111.483,71.156 C111.422333,70.7919982 111.308001,70.4630015 111.14,70.169 C110.971999,69.8749985 110.741001,69.6323343 110.447,69.441 C110.152998,69.2496657 109.772669,69.154 109.306,69.154 C108.857997,69.154 108.480001,69.2589989 108.172,69.469 C107.863998,69.679001 107.614334,69.9379985 107.423,70.246 C107.231665,70.5540015 107.096333,70.8853316 107.017,71.24 C106.937666,71.5946684 106.898,71.9166652 106.898,72.206 L111.574,72.206 Z M109.348,76.28 C108.82533,76.28 108.370335,76.1726677 107.983,75.958 C107.595664,75.7433323 107.273668,75.4586684 107.017,75.104 C106.760332,74.7493316 106.569,74.3433356 106.443,73.886 C106.316999,73.4286644 106.254,72.9620024 106.254,72.486 C106.254,72.0006642 106.319332,71.524669 106.45,71.058 C106.580667,70.591331 106.774332,70.1760018 107.031,69.812 C107.287668,69.4479982 107.609664,69.1563344 107.997,68.937 C108.384335,68.7176656 108.834664,68.608 109.348,68.608 C109.833335,68.608 110.255665,68.6989991 110.615,68.881 C110.974335,69.0630009 111.268332,69.3056651 111.497,69.609 C111.725668,69.9123348 111.895999,70.2646647 112.008,70.666 C112.12,71.0673353 112.176,71.4826645 112.176,71.912 C112.176,72.2200015 112.136333,72.4276661 112.057,72.535 C111.977666,72.6423339 111.821334,72.696 111.588,72.696 L106.898,72.696 C106.888666,73.0506684 106.942332,73.4099982 107.059,73.774 C107.175667,74.1380018 107.343665,74.4646652 107.563,74.754 C107.782334,75.0433348 108.045998,75.2789991 108.354,75.461 C108.662001,75.6430009 109.002665,75.734 109.376,75.734 C109.861335,75.734 110.283665,75.6710006 110.643,75.545 C111.002335,75.4189994 111.331332,75.1833351 111.63,74.838 C111.714,74.7446662 111.790999,74.6863334 111.861,74.663 C111.931,74.6396665 111.991666,74.6396665 112.043,74.663 C112.094333,74.6863334 112.134,74.7236664 112.162,74.775 C112.19,74.8263336 112.204,74.8799997 112.204,74.936 C112.204,75.0200004 112.141,75.1389992 112.015,75.293 C111.888999,75.4470008 111.704668,75.5963326 111.462,75.741 C111.219332,75.8856674 110.920668,76.0116661 110.566,76.119 C110.211331,76.2263339 109.805335,76.28 109.348,76.28 Z M118.192,66.2 C118.192,66.0319992 118.215333,65.9153337 118.262,65.85 C118.308667,65.7846663 118.392666,65.752 118.514,65.752 C118.644667,65.752 118.730999,65.7846663 118.773,65.85 C118.815,65.9153337 118.836,66.0319992 118.836,66.2 L118.836,75.706 C118.836,75.8740008 118.812667,75.9906663 118.766,76.056 C118.719333,76.1213337 118.635334,76.154 118.514,76.154 C118.392666,76.154 118.308667,76.1213337 118.262,76.056 C118.215333,75.9906663 118.192,75.8740008 118.192,75.706 L118.192,66.2 Z M128.464,68.58 C129.033336,68.58 129.527997,68.6896656 129.948,68.909 C130.368002,69.1283344 130.713332,69.4199982 130.984,69.784 C131.254668,70.1480018 131.455332,70.563331 131.586,71.03 C131.716667,71.496669 131.782,71.9819975 131.782,72.486 C131.782,72.9900025 131.714334,73.475331 131.579,73.942 C131.443666,74.408669 131.240668,74.8193316 130.97,75.174 C130.699332,75.5286684 130.354002,75.8133323 129.934,76.028 C129.513997,76.2426677 129.024002,76.35 128.464,76.35 C127.903997,76.35 127.416335,76.2403344 127.001,76.021 C126.585664,75.8016656 126.245001,75.5123351 125.979,75.153 C125.712998,74.7936649 125.514667,74.380669 125.384,73.914 C125.253332,73.447331 125.188,72.9620025 125.188,72.458 C125.188,71.9539975 125.250999,71.468669 125.377,71.002 C125.503,70.535331 125.698998,70.1223351 125.965,69.763 C126.231001,69.4036649 126.569331,69.1166677 126.98,68.902 C127.390668,68.6873323 127.88533,68.58 128.464,68.58 Z M128.464,75.79 C128.884002,75.79 129.257331,75.7083341 129.584,75.545 C129.910668,75.3816658 130.188332,75.1553348 130.417,74.866 C130.645667,74.5766652 130.820666,74.2313353 130.942,73.83 C131.063333,73.4286647 131.124,72.9853358 131.124,72.5 C131.124,72.0146642 131.065667,71.569002 130.949,71.163 C130.832332,70.756998 130.662001,70.4070015 130.438,70.113 C130.213998,69.8189985 129.934001,69.5880008 129.598,69.42 C129.261998,69.2519992 128.874668,69.168 128.436,69.168 C127.997331,69.168 127.614668,69.2496658 127.288,69.413 C126.961331,69.5763341 126.690667,69.8049985 126.476,70.099 C126.261332,70.3930015 126.102667,70.742998 126,71.149 C125.897332,71.555002 125.846,71.9959976 125.846,72.472 C125.846,72.9480024 125.904332,73.388998 126.021,73.795 C126.137667,74.201002 126.307998,74.5509985 126.532,74.845 C126.756001,75.1390015 127.028998,75.3699992 127.351,75.538 C127.673001,75.7060008 128.043997,75.79 128.464,75.79 Z M143.103999,72.472 C143.103999,72.0146644 143.057333,71.5876686 142.963999,71.191 C142.870666,70.7943313 142.721334,70.4513348 142.515999,70.162 C142.310665,69.8726652 142.047001,69.6463341 141.724999,69.483 C141.402998,69.3196658 141.018002,69.238 140.569999,69.238 C140.187331,69.238 139.846668,69.3266658 139.547999,69.504 C139.249331,69.6813342 138.997334,69.9216651 138.791999,70.225 C138.586665,70.5283348 138.430333,70.875998 138.322999,71.268 C138.215666,71.660002 138.161999,72.0659979 138.161999,72.486 C138.161999,72.9060021 138.222665,73.3073314 138.343999,73.69 C138.465333,74.0726686 138.633332,74.4063319 138.847999,74.691 C139.062667,74.9756681 139.314665,75.2019992 139.603999,75.37 C139.893334,75.5380008 140.205998,75.622 140.541999,75.622 C140.943335,75.622 141.304998,75.5450008 141.626999,75.391 C141.949001,75.2369992 142.217332,75.0200014 142.431999,74.74 C142.646667,74.4599986 142.812332,74.1286686 142.928999,73.746 C143.045667,73.3633314 143.103999,72.938669 143.103999,72.472 Z M138.189999,77.778 C138.189999,78.0766682 138.078001,78.226 137.853999,78.226 C137.629998,78.226 137.517999,78.0766682 137.517999,77.778 L137.517999,69.168 C137.517999,68.8693318 137.625332,68.72 137.839999,68.72 C138.054667,68.72 138.161999,68.8693318 138.161999,69.168 L138.161999,70.456 C138.246,70.2226655 138.362665,69.9986677 138.511999,69.784 C138.661334,69.5693323 138.838665,69.3780008 139.043999,69.21 C139.249334,69.0419992 139.484998,68.9066672 139.750999,68.804 C140.017001,68.7013328 140.303998,68.65 140.611999,68.65 C141.041335,68.6406666 141.447331,68.7106659 141.829999,68.86 C142.212668,69.0093341 142.548665,69.2426651 142.837999,69.56 C143.127334,69.8773349 143.358332,70.2786642 143.530999,70.764 C143.703667,71.2493358 143.789999,71.8186634 143.789999,72.472 C143.789999,73.013336 143.715334,73.5126644 143.565999,73.97 C143.416665,74.4273356 143.204334,74.821665 142.928999,75.153 C142.653665,75.484335 142.327001,75.7433324 141.948999,75.93 C141.570998,76.1166676 141.153335,76.21 140.695999,76.21 C140.051996,76.21 139.531668,76.0536682 139.134999,75.741 C138.738331,75.4283318 138.423334,75.0293358 138.189999,74.544 L138.189999,77.778 Z M159.451999,71.576 C159.451999,70.8199962 159.286334,70.2483353 158.954999,69.861 C158.623664,69.4736647 158.173336,69.28 157.603999,69.28 C157.305331,69.28 157.025334,69.3266662 156.763999,69.42 C156.502665,69.5133338 156.269334,69.6603323 156.063999,69.861 C155.858665,70.0616677 155.697667,70.3183318 155.580999,70.631 C155.464332,70.9436682 155.405999,71.3193311 155.405999,71.758 L155.405999,75.692 C155.405999,75.8600008 155.382666,75.9766663 155.335999,76.042 C155.289332,76.1073337 155.205333,76.14 155.083999,76.14 C154.962665,76.14 154.878666,76.1073337 154.831999,76.042 C154.785332,75.9766663 154.761999,75.8600008 154.761999,75.692 L154.761999,72.122 C154.761999,71.655331 154.729333,71.2423351 154.663999,70.883 C154.598666,70.5236649 154.486667,70.2250012 154.327999,69.987 C154.169332,69.7489988 153.959334,69.5693339 153.697999,69.448 C153.436665,69.3266661 153.105335,69.266 152.703999,69.266 C152.461331,69.266 152.214001,69.3079996 151.961999,69.392 C151.709998,69.4760004 151.481334,69.615999 151.275999,69.812 C151.070665,70.008001 150.900333,70.2623318 150.764999,70.575 C150.629665,70.8876682 150.561999,71.2726644 150.561999,71.73 L150.561999,75.692 C150.561999,75.8600008 150.538666,75.9766663 150.491999,76.042 C150.445332,76.1073337 150.361333,76.14 150.239999,76.14 C150.118665,76.14 150.034666,76.1073337 149.987999,76.042 C149.941332,75.9766663 149.917999,75.8600008 149.917999,75.692 L149.917999,69.168 C149.917999,68.9999992 149.943666,68.8833337 149.994999,68.818 C150.046333,68.7526663 150.127999,68.72 150.239999,68.72 C150.454667,68.72 150.561999,68.8693318 150.561999,69.168 L150.561999,69.994 C150.636666,69.797999 150.753332,69.6183341 150.911999,69.455 C151.070667,69.2916658 151.252665,69.1516672 151.457999,69.035 C151.663334,68.9183327 151.877998,68.8273337 152.101999,68.762 C152.326,68.6966663 152.545332,68.664 152.759999,68.664 C153.348002,68.664 153.858997,68.7806655 154.292999,69.014 C154.727002,69.2473345 155.023332,69.6019976 155.181999,70.078 C155.424667,69.6579979 155.758331,69.3173346 156.182999,69.056 C156.607668,68.7946654 157.099997,68.664 157.659999,68.664 C158.005334,68.664 158.327331,68.7153328 158.625999,68.818 C158.924667,68.9206672 159.181332,69.0769989 159.395999,69.287 C159.610667,69.497001 159.780999,69.7583318 159.906999,70.071 C160.033,70.3836682 160.095999,70.7499979 160.095999,71.17 L160.095999,75.692 C160.095999,75.9906682 159.988667,76.14 159.773999,76.14 C159.559332,76.14 159.451999,75.9906682 159.451999,75.692 L159.451999,71.576 Z M171.487999,72.206 C171.487999,71.8699983 171.457666,71.5200018 171.396999,71.156 C171.336332,70.7919982 171.222,70.4630015 171.053999,70.169 C170.885998,69.8749985 170.655001,69.6323343 170.360999,69.441 C170.066998,69.2496657 169.686668,69.154 169.219999,69.154 C168.771997,69.154 168.394001,69.2589989 168.085999,69.469 C167.777998,69.679001 167.528334,69.9379985 167.336999,70.246 C167.145665,70.5540015 167.010333,70.8853316 166.930999,71.24 C166.851666,71.5946684 166.811999,71.9166652 166.811999,72.206 L171.487999,72.206 Z M169.261999,76.28 C168.73933,76.28 168.284335,76.1726677 167.896999,75.958 C167.509664,75.7433323 167.187667,75.4586684 166.930999,75.104 C166.674331,74.7493316 166.483,74.3433356 166.356999,73.886 C166.230999,73.4286644 166.167999,72.9620024 166.167999,72.486 C166.167999,72.0006642 166.233332,71.524669 166.363999,71.058 C166.494667,70.591331 166.688331,70.1760018 166.944999,69.812 C167.201667,69.4479982 167.523664,69.1563344 167.910999,68.937 C168.298335,68.7176656 168.748663,68.608 169.261999,68.608 C169.747335,68.608 170.169664,68.6989991 170.528999,68.881 C170.888334,69.0630009 171.182331,69.3056651 171.410999,69.609 C171.639667,69.9123348 171.809999,70.2646647 171.921999,70.666 C172.034,71.0673353 172.089999,71.4826645 172.089999,71.912 C172.089999,72.2200015 172.050333,72.4276661 171.970999,72.535 C171.891666,72.6423339 171.735334,72.696 171.501999,72.696 L166.811999,72.696 C166.802666,73.0506684 166.856332,73.4099982 166.972999,73.774 C167.089666,74.1380018 167.257665,74.4646652 167.476999,74.754 C167.696334,75.0433348 167.959998,75.2789991 168.267999,75.461 C168.576001,75.6430009 168.916664,75.734 169.289999,75.734 C169.775335,75.734 170.197664,75.6710006 170.556999,75.545 C170.916334,75.4189994 171.245331,75.1833351 171.543999,74.838 C171.628,74.7446662 171.704999,74.6863334 171.774999,74.663 C171.845,74.6396665 171.905666,74.6396665 171.956999,74.663 C172.008333,74.6863334 172.047999,74.7236664 172.075999,74.775 C172.103999,74.8263336 172.117999,74.8799997 172.117999,74.936 C172.117999,75.0200004 172.055,75.1389992 171.928999,75.293 C171.802999,75.4470008 171.618667,75.5963326 171.375999,75.741 C171.133331,75.8856674 170.834668,76.0116661 170.479999,76.119 C170.125331,76.2263339 169.719335,76.28 169.261999,76.28 Z M182.781999,71.408 C182.781999,70.9879979 182.735333,70.6356681 182.641999,70.351 C182.548665,70.0663319 182.415667,69.8400008 182.242999,69.672 C182.070332,69.5039992 181.865,69.382667 181.626999,69.308 C181.388998,69.233333 181.130001,69.196 180.849999,69.196 C180.597998,69.196 180.334334,69.2403329 180.058999,69.329 C179.783664,69.4176671 179.527,69.5506658 179.288999,69.728 C179.050998,69.9053342 178.855,70.1269987 178.700999,70.393 C178.546998,70.6590013 178.469999,70.9739982 178.469999,71.338 L178.469999,75.692 C178.469999,75.9906682 178.362667,76.14 178.147999,76.14 C177.933331,76.14 177.825999,75.9906682 177.825999,75.692 L177.825999,69.168 C177.825999,68.9999992 177.851666,68.8833337 177.902999,68.818 C177.954333,68.7526663 178.040665,68.72 178.161999,68.72 C178.283333,68.72 178.364999,68.7526663 178.406999,68.818 C178.448999,68.8833337 178.469999,68.9999992 178.469999,69.168 L178.469999,70.022 C178.554,69.8539992 178.677665,69.6860008 178.840999,69.518 C179.004333,69.3499992 179.195665,69.198334 179.414999,69.063 C179.634334,68.927666 179.876998,68.8180004 180.142999,68.734 C180.409,68.6499996 180.681998,68.608 180.961999,68.608 C181.298001,68.608 181.615331,68.6569995 181.913999,68.755 C182.212667,68.8530005 182.473998,69.0023323 182.697999,69.203 C182.922,69.4036677 183.099332,69.6649984 183.229999,69.987 C183.360666,70.3090016 183.425999,70.6939978 183.425999,71.142 L183.425999,75.692 C183.425999,75.8600008 183.402666,75.9766663 183.355999,76.042 C183.309332,76.1073337 183.225333,76.14 183.103999,76.14 C182.982665,76.14 182.898666,76.1073337 182.851999,76.042 C182.805332,75.9766663 182.781999,75.8600008 182.781999,75.692 L182.781999,71.408 Z M191.121999,69.588 L191.121999,73.34 C191.121999,73.5640011 191.117332,73.8066654 191.107999,74.068 C191.098666,74.3293346 191.124332,74.5719989 191.184999,74.796 C191.245666,75.0200011 191.357665,75.2066659 191.520999,75.356 C191.684333,75.5053341 191.943331,75.58 192.297999,75.58 C192.540667,75.58 192.736665,75.5566669 192.885999,75.51 C193.035333,75.4633331 193.184665,75.4073337 193.333999,75.342 C193.417999,75.3046665 193.499665,75.2650002 193.578999,75.223 C193.658333,75.1809998 193.725999,75.1530001 193.781999,75.139 C193.837999,75.1249999 193.884666,75.1273332 193.921999,75.146 C193.959333,75.1646668 193.977999,75.2159996 193.977999,75.3 C193.977999,75.4026672 193.922,75.5053328 193.809999,75.608 C193.697998,75.7106672 193.553333,75.8016663 193.375999,75.881 C193.198665,75.9603337 193.000333,76.0233331 192.780999,76.07 C192.561665,76.1166669 192.349333,76.14 192.143999,76.14 C191.639997,76.14 191.236334,76.0000014 190.932999,75.72 C190.629664,75.4399986 190.477999,74.96867 190.477999,74.306 L190.477999,69.588 L189.693999,69.588 C189.404664,69.588 189.259999,69.4806677 189.259999,69.266 C189.259999,69.0513323 189.404664,68.944 189.693999,68.944 L190.477999,68.944 L190.477999,67.656 C190.477999,67.4973325 190.501332,67.380667 190.547999,67.306 C190.594666,67.231333 190.683332,67.194 190.813999,67.194 C190.944666,67.194 191.028666,67.2266663 191.065999,67.292 C191.103333,67.3573337 191.121999,67.4739992 191.121999,67.642 L191.121999,68.944 L193.025999,68.944 C193.296667,68.944 193.515998,68.9533332 193.683999,68.972 C193.852,68.9906668 193.935999,69.0886658 193.935999,69.266 C193.935999,69.3966673 193.889333,69.4829998 193.795999,69.525 C193.702665,69.5670002 193.572,69.588 193.403999,69.588 L191.121999,69.588 Z" id="DEVELOPMENT" fill="#FFFCFC"></path>
                <g id="Oval-Copy">
                    <mask id="mask-2" fill="white">
                        <use xlink:href="#path-1"></use>
                    </mask>
                    <use id="Mask" fill="#D8D8D8" xlink:href="#path-1"></use>
                    <circle id="Oval-Copy-4" fill="#95D8FF" mask="url(#mask-2)" cx="76" cy="24" r="33"></circle>
                    <circle fill="#37B5FF" mask="url(#mask-2)" cx="33" cy="24" r="33"></circle>
                    <circle fill="#00A1FF" mask="url(#mask-2)" cx="21" cy="33" r="33"></circle>
                    <circle id="Oval-Copy-2" fill="#007CFF" mask="url(#mask-2)" cx="21" cy="57" r="33"></circle>
                    <circle id="Oval-Copy-3" fill="#0060FF" mask="url(#mask-2)" cx="33" cy="79" r="33"></circle>
                    <circle id="Oval-Copy-4" fill="#093ED9" mask="url(#mask-2)" cx="66" cy="77" r="33"></circle>
                </g>
            </g>
        </g>
    </g>
</svg>