<svg width="196" height="87" viewBox="0 0 196 87" xmlns="http://www.w3.org/2000/svg" xmlns:xlink="http://www.w3.org/1999/xlink"><title>Grouplogo</title><defs><path d="M57.636 84.652A43.442 43.442 0 0 1 43.5 87C19.476 87 0 67.524 0 43.5S19.476 0 43.5 0 87 19.476 87 43.5c0 2.73-.251 5.401-.733 7.992C82.32 44.06 74.501 39 65.5 39 52.521 39 42 49.521 42 62.5c0 10.22 6.524 18.917 15.636 22.152z" id="a"/></defs><g fill="none" fill-rule="evenodd"><path d="M122.43 28.477c2.312.875 4.172 2.32 5.578 4.335 1.469 2.047 2.203 4.32 2.203 6.82 0 3.298-1.188 6.102-3.563 8.415-2.375 2.344-5.226 3.516-8.554 3.516-3.313 0-6.14-1.149-8.485-3.446-2.359-2.281-3.57-5.047-3.632-8.297h2.414c.062 2.578 1.039 4.774 2.93 6.586 1.89 1.828 4.148 2.742 6.773 2.742 2.672 0 4.945-.937 6.82-2.812 1.906-1.86 2.86-4.094 2.86-6.703 0-2.64-.946-4.89-2.837-6.75-1.906-1.875-4.195-2.813-6.867-2.813-1.656 0-3.101-.53-4.336-1.593a6.654 6.654 0 0 1-.375-.329c-1.312-1.296-1.96-2.859-1.945-4.687 0-1.844.656-3.414 1.969-4.711 1.281-1.297 2.844-1.945 4.687-1.945 1.844 0 3.43.648 4.758 1.945 1.297 1.297 1.945 2.867 1.945 4.71h-2.414c0-1.17-.421-2.17-1.265-3-.844-.827-1.852-1.241-3.024-1.241s-2.164.414-2.976 1.242c-.828.828-1.242 1.828-1.242 3 0 1.14.414 2.125 1.242 2.953.812.828 1.804 1.242 2.976 1.242 1.485 0 2.938.274 4.36.82zm13.52 22.64h-2.46V17.414h2.46v33.703zm7.5-12.304l22.055 22.054h-3.47l-22.054-22.054 21.563-21.493h3.492L143.45 38.812zm37.473 1.64l-12.14-23.062h2.695l10.64 20.484 10.665-20.484h2.672l-12.07 23.062L183.36 51H180.9l.023-10.547z" fill="#FFF"/><path d="M72.302 72.472c0 .467.058.891.175 1.274.117.383.282.714.497.994.215.28.48.497.798.651.317.154.681.231 1.092.231.401 0 .751-.084 1.05-.252a2.2 2.2 0 0 0 .742-.679c.196-.285.343-.618.441-1.001a4.835 4.835 0 0 0-.014-2.422 3.488 3.488 0 0 0-.469-1.043 2.367 2.367 0 0 0-.756-.721 1.963 1.963 0 0 0-1.022-.266c-.448 0-.833.082-1.155.245-.322.163-.586.39-.791.679-.205.29-.355.632-.448 1.029-.093.397-.14.824-.14 1.281zm4.914 2.072a3.479 3.479 0 0 1-.959 1.197c-.397.313-.912.469-1.547.469a2.79 2.79 0 0 1-1.253-.28 2.976 2.976 0 0 1-.98-.777 3.555 3.555 0 0 1-.637-1.183 4.802 4.802 0 0 1-.224-1.498c0-.653.086-1.223.259-1.708.173-.485.404-.887.693-1.204a2.66 2.66 0 0 1 1.008-.7 3.13 3.13 0 0 1 1.218-.21c.308 0 .595.051.861.154.266.103.502.238.707.406a2.887 2.887 0 0 1 .882 1.246V66.2c0-.299.107-.448.322-.448.215 0 .322.15.322.448v9.478c0 .299-.112.448-.336.448-.224 0-.336-.15-.336-.448v-1.134zm11.84-2.338c0-.336-.03-.686-.091-1.05a2.948 2.948 0 0 0-.343-.987 2.108 2.108 0 0 0-.693-.728c-.294-.191-.674-.287-1.141-.287-.448 0-.826.105-1.134.315-.308.21-.558.469-.749.777a3.19 3.19 0 0 0-.406.994c-.08.355-.119.677-.119.966h4.676zM86.83 76.28c-.523 0-.978-.107-1.365-.322a2.93 2.93 0 0 1-.966-.854 3.76 3.76 0 0 1-.574-1.218 5.272 5.272 0 0 1 .007-2.828c.13-.467.324-.882.581-1.246.257-.364.579-.656.966-.875.387-.22.838-.329 1.351-.329.485 0 .908.091 1.267.273a2.5 2.5 0 0 1 .882.728c.229.303.399.656.511 1.057.112.401.168.817.168 1.246 0 .308-.04.516-.119.623-.08.107-.236.161-.469.161h-4.69c-.01.355.044.714.161 1.078.117.364.285.69.504.98.22.29.483.525.791.707.308.182.649.273 1.022.273.485 0 .908-.063 1.267-.189.36-.126.688-.362.987-.707a.59.59 0 0 1 .231-.175.244.244 0 0 1 .182 0c.051.023.091.06.119.112a.332.332 0 0 1 .042.161c0 .084-.063.203-.189.357-.126.154-.31.303-.553.448a4.04 4.04 0 0 1-.896.378c-.355.107-.76.161-1.218.161zm11.532-.644a1.37 1.37 0 0 1-.238.392.334.334 0 0 1-.238.112.39.39 0 0 1-.238-.084c-.075-.056-.163-.196-.266-.42l-2.464-6.258c-.103-.224-.128-.39-.077-.497.051-.107.142-.161.273-.161.075 0 .135.033.182.098.047.065.098.159.154.28l2.422 6.272c.401-1.045.8-2.081 1.197-3.108.397-1.027.791-2.063 1.183-3.108.065-.13.124-.233.175-.308.051-.075.114-.112.189-.112.13 0 .22.044.266.133.047.089.028.259-.056.511l-2.464 6.258zm13.212-3.43c0-.336-.03-.686-.091-1.05a2.948 2.948 0 0 0-.343-.987 2.108 2.108 0 0 0-.693-.728c-.294-.191-.674-.287-1.141-.287-.448 0-.826.105-1.134.315-.308.21-.558.469-.749.777a3.19 3.19 0 0 0-.406.994c-.08.355-.119.677-.119.966h4.676zm-2.226 4.074c-.523 0-.978-.107-1.365-.322a2.93 2.93 0 0 1-.966-.854 3.76 3.76 0 0 1-.574-1.218 5.272 5.272 0 0 1 .007-2.828c.13-.467.324-.882.581-1.246.257-.364.579-.656.966-.875.387-.22.838-.329 1.351-.329.485 0 .908.091 1.267.273a2.5 2.5 0 0 1 .882.728c.229.303.399.656.511 1.057.112.401.168.817.168 1.246 0 .308-.04.516-.119.623-.08.107-.236.161-.469.161h-4.69c-.01.355.044.714.161 1.078.117.364.285.69.504.98.22.29.483.525.791.707.308.182.649.273 1.022.273.485 0 .908-.063 1.267-.189.36-.126.688-.362.987-.707a.59.59 0 0 1 .231-.175.244.244 0 0 1 .182 0c.051.023.091.06.119.112a.332.332 0 0 1 .042.161c0 .084-.063.203-.189.357-.126.154-.31.303-.553.448a4.04 4.04 0 0 1-.896.378c-.355.107-.76.161-1.218.161zm8.844-10.08c0-.168.023-.285.07-.35.047-.065.13-.098.252-.098.13 0 .217.033.259.098.042.065.063.182.063.35v9.506c0 .168-.023.285-.07.35-.047.065-.13.098-.252.098-.121 0-.205-.033-.252-.098-.047-.065-.07-.182-.07-.35V66.2zm10.272 2.38c.57 0 1.064.11 1.484.329.42.22.765.511 1.036.875.27.364.471.78.602 1.246.13.467.196.952.196 1.456s-.068.99-.203 1.456a3.713 3.713 0 0 1-.609 1.232c-.27.355-.616.64-1.036.854-.42.215-.91.322-1.47.322-.56 0-1.048-.11-1.463-.329a2.984 2.984 0 0 1-1.022-.868 3.768 3.768 0 0 1-.595-1.239 5.375 5.375 0 0 1-.196-1.456c0-.504.063-.99.189-1.456.126-.467.322-.88.588-1.239.266-.36.604-.646 1.015-.861.41-.215.905-.322 1.484-.322zm0 7.21c.42 0 .793-.082 1.12-.245.327-.163.604-.39.833-.679.229-.29.404-.635.525-1.036s.182-.845.182-1.33c0-.485-.058-.931-.175-1.337a3.147 3.147 0 0 0-.511-1.05 2.378 2.378 0 0 0-.84-.693 2.565 2.565 0 0 0-1.162-.252c-.439 0-.821.082-1.148.245a2.22 2.22 0 0 0-.812.686 3.012 3.012 0 0 0-.476 1.05 5.387 5.387 0 0 0-.154 1.323c0 .476.058.917.175 1.323.117.406.287.756.511 1.05.224.294.497.525.819.693.322.168.693.252 1.113.252zm14.64-3.318c0-.457-.047-.884-.14-1.281a2.908 2.908 0 0 0-.448-1.029 2.143 2.143 0 0 0-.791-.679c-.322-.163-.707-.245-1.155-.245-.383 0-.723.089-1.022.266-.299.177-.55.418-.756.721a3.488 3.488 0 0 0-.469 1.043 4.591 4.591 0 0 0-.161 1.218c0 .42.06.821.182 1.204.121.383.29.716.504 1.001.215.285.467.511.756.679.29.168.602.252.938.252.401 0 .763-.077 1.085-.231a2.19 2.19 0 0 0 .805-.651c.215-.28.38-.611.497-.994.117-.383.175-.807.175-1.274zm-4.914 5.306c0 .299-.112.448-.336.448-.224 0-.336-.15-.336-.448v-8.61c0-.299.107-.448.322-.448.215 0 .322.15.322.448v1.288a2.887 2.887 0 0 1 .882-1.246c.205-.168.441-.303.707-.406a2.37 2.37 0 0 1 .861-.154c.43-.01.835.06 1.218.21s.719.383 1.008.7c.29.317.52.719.693 1.204.173.485.259 1.055.259 1.708 0 .541-.075 1.04-.224 1.498-.15.457-.362.852-.637 1.183-.275.331-.602.59-.98.777a2.79 2.79 0 0 1-1.253.28c-.644 0-1.164-.156-1.561-.469a3.34 3.34 0 0 1-.945-1.197v3.234zm21.262-6.202c0-.756-.166-1.328-.497-1.715-.331-.387-.782-.581-1.351-.581a2.48 2.48 0 0 0-.84.14c-.261.093-.495.24-.7.441-.205.2-.366.457-.483.77-.117.313-.175.688-.175 1.127v3.934c0 .168-.023.285-.07.35-.047.065-.13.098-.252.098-.121 0-.205-.033-.252-.098-.047-.065-.07-.182-.07-.35v-3.57c0-.467-.033-.88-.098-1.239a2.363 2.363 0 0 0-.336-.896 1.504 1.504 0 0 0-.63-.539c-.261-.121-.593-.182-.994-.182-.243 0-.49.042-.742.126a1.82 1.82 0 0 0-.686.42c-.205.196-.376.45-.511.763s-.203.698-.203 1.155v3.962c0 .168-.023.285-.07.35-.047.065-.13.098-.252.098-.121 0-.205-.033-.252-.098-.047-.065-.07-.182-.07-.35v-6.524c0-.168.026-.285.077-.35.051-.065.133-.098.245-.098.215 0 .322.15.322.448v.826c.075-.196.191-.376.35-.539.159-.163.34-.303.546-.42a3 3 0 0 1 .644-.273c.224-.065.443-.098.658-.098.588 0 1.099.117 1.533.35.434.233.73.588.889 1.064.243-.42.576-.76 1.001-1.022.425-.261.917-.392 1.477-.392.345 0 .667.051.966.154.299.103.555.259.77.469.215.21.385.471.511.784.126.313.189.679.189 1.099v4.522c0 .299-.107.448-.322.448-.215 0-.322-.15-.322-.448v-4.116zm12.036.63c0-.336-.03-.686-.091-1.05a2.948 2.948 0 0 0-.343-.987 2.108 2.108 0 0 0-.693-.728c-.294-.191-.674-.287-1.141-.287-.448 0-.826.105-1.134.315-.308.21-.558.469-.749.777a3.19 3.19 0 0 0-.406.994c-.08.355-.119.677-.119.966h4.676zm-2.226 4.074c-.523 0-.978-.107-1.365-.322a2.93 2.93 0 0 1-.966-.854 3.76 3.76 0 0 1-.574-1.218 5.272 5.272 0 0 1 .007-2.828c.13-.467.324-.882.581-1.246.257-.364.579-.656.966-.875.387-.22.838-.329 1.351-.329.485 0 .908.091 1.267.273a2.5 2.5 0 0 1 .882.728c.229.303.399.656.511 1.057.112.401.168.817.168 1.246 0 .308-.04.516-.119.623-.08.107-.236.161-.469.161h-4.69c-.01.355.044.714.161 1.078.117.364.285.69.504.98.22.29.483.525.791.707.308.182.649.273 1.022.273.485 0 .908-.063 1.267-.189.36-.126.688-.362.987-.707a.59.59 0 0 1 .231-.175.244.244 0 0 1 .182 0c.051.023.091.06.119.112a.332.332 0 0 1 .042.161c0 .084-.063.203-.189.357-.126.154-.31.303-.553.448a4.04 4.04 0 0 1-.896.378c-.355.107-.76.161-1.218.161zm13.52-4.872c0-.42-.047-.772-.14-1.057a1.64 1.64 0 0 0-.399-.679 1.524 1.524 0 0 0-.616-.364 2.584 2.584 0 0 0-1.568.021 2.632 2.632 0 0 0-.77.399 2.182 2.182 0 0 0-.588.665 1.854 1.854 0 0 0-.231.945v4.354c0 .299-.107.448-.322.448-.215 0-.322-.15-.322-.448v-6.524c0-.168.026-.285.077-.35.051-.065.138-.098.259-.098s.203.033.245.098c.042.065.063.182.063.35v.854c.084-.168.208-.336.371-.504.163-.168.355-.32.574-.455.22-.135.462-.245.728-.329.266-.084.539-.126.819-.126.336 0 .653.049.952.147.299.098.56.247.784.448.224.2.401.462.532.784.13.322.196.707.196 1.155v4.55c0 .168-.023.285-.07.35-.047.065-.13.098-.252.098-.121 0-.205-.033-.252-.098-.047-.065-.07-.182-.07-.35v-4.284zm8.34-1.82v3.752c0 .224-.005.467-.014.728-.01.261.016.504.077.728.06.224.173.41.336.56.163.15.422.224.777.224.243 0 .439-.023.588-.07a4.369 4.369 0 0 0 .693-.287.94.94 0 0 1 .203-.084.2.2 0 0 1 .14.007c.037.019.056.07.056.154 0 .103-.056.205-.168.308a1.61 1.61 0 0 1-.434.273c-.177.08-.376.142-.595.189-.22.047-.432.07-.637.07-.504 0-.908-.14-1.211-.42-.303-.28-.455-.751-.455-1.414v-4.718h-.784c-.29 0-.434-.107-.434-.322 0-.215.145-.322.434-.322h.784v-1.288c0-.159.023-.275.07-.35.047-.075.135-.112.266-.112.13 0 .215.033.252.098.037.065.056.182.056.35v1.302h1.904c.27 0 .49.01.658.028.168.019.252.117.252.294 0 .13-.047.217-.14.259a.98.98 0 0 1-.392.063h-2.282z" fill="#FFFCFC"/><g><mask id="b" fill="#fff"><use xlink:href="#a"/></mask><use fill="#D8D8D8" xlink:href="#a"/><circle fill="#95D8FF" mask="url(#b)" cx="76" cy="24" r="33"/><circle fill="#37B5FF" mask="url(#b)" cx="33" cy="24" r="33"/><circle fill="#00A1FF" mask="url(#b)" cx="21" cy="33" r="33"/><circle fill="#007CFF" mask="url(#b)" cx="21" cy="57" r="33"/><circle fill="#0060FF" mask="url(#b)" cx="33" cy="79" r="33"/><circle fill="#093ED9" mask="url(#b)" cx="66" cy="77" r="33"/></g></g></svg>