<?xml version="1.0" encoding="UTF-8"?>
<svg width="42px" height="42px" viewBox="0 0 42 42" version="1.1" xmlns="http://www.w3.org/2000/svg" xmlns:xlink="http://www.w3.org/1999/xlink">
    <!-- Generator: Sketch 41 (35326) - http://www.bohemiancoding.com/sketch -->
    <title>Group 6</title>
    <desc>Created with Sketch.</desc>
    <defs></defs>
    <g id="Page-1" stroke="none" stroke-width="1" fill="none" fill-rule="evenodd">
        <g id="Main" transform="translate(-489.000000, -853.000000)">
            <g id="header" transform="translate(-100.000000, 0.000000)">
                <g id="Group-10" transform="translate(445.000000, 854.000000)">
                    <g id="Group-6" transform="translate(145.000000, 0.000000)">
                        <path d="M14.981,11 C14.712,11.005 13.992,11.333 13.208,12.055 C12.463,12.741 12.001,13.486 12.001,14 C12.001,20.729 20.265,29 26.987,29 C27.5,29 28.245,28.535 28.931,27.787 C29.654,26.999 29.982,26.275 29.987,26.006 C29.955,25.816 29.429,25.077 27.99,23.969 C26.752,23.017 25.75,22.506 25.492,22.5 C25.474,22.505 25.362,22.548 25.135,22.836 C24.938,23.087 24.727,23.43 24.522,23.762 C23.961,24.673 23.433,25.534 22.664,25.534 C22.54,25.534 22.418,25.51 22.301,25.463 C19.676,24.413 16.572,21.309 15.522,18.684 C15.396,18.369 15.376,17.875 15.996,17.312 C16.326,17.014 16.782,16.734 17.224,16.462 C17.556,16.258 17.9,16.047 18.15,15.849 C18.438,15.622 18.481,15.51 18.486,15.492 C18.479,15.234 17.969,14.231 17.017,12.994 C15.909,11.555 15.169,11.03 14.98,10.997 L14.981,11 Z M26.987,30 C25.215,30 23.332,29.498 21.387,28.508 C19.594,27.595 17.823,26.288 16.265,24.729 C14.707,23.168 13.402,21.395 12.49,19.601 C11.502,17.655 11,15.771 11,14 C11,12.852 12.07,11.743 12.529,11.32 C13.19,10.711 14.23,10 14.986,10 C15.362,10 15.802,10.246 16.373,10.774 C16.797,11.168 17.277,11.702 17.755,12.318 C18.044,12.69 19.486,14.589 19.486,15.5 C19.486,16.247 18.641,16.767 17.747,17.316 C17.401,17.528 17.044,17.748 16.786,17.955 C16.51,18.176 16.46,18.293 16.453,18.319 C17.402,20.685 20.303,23.586 22.668,24.534 C22.689,24.527 22.806,24.481 23.031,24.201 C23.238,23.943 23.458,23.585 23.669,23.24 C24.22,22.346 24.739,21.501 25.486,21.501 C26.397,21.501 28.295,22.942 28.668,23.231 C29.284,23.71 29.818,24.189 30.211,24.614 C30.74,25.184 30.986,25.625 30.986,26.001 C30.986,26.757 30.275,27.8 29.667,28.464 C29.243,28.926 28.134,30.001 26.986,30.001 L26.987,30 Z" id="Fill-1491" fill="#FFFFFF"></path>
                        <circle id="Oval-4" stroke="#FFFFFF" cx="20" cy="20" r="20"></circle>
                    </g>
                </g>
            </g>
        </g>
    </g>
</svg>