<?xml version="1.0" encoding="UTF-8"?>
<svg width="20px" height="18px" viewBox="0 0 20 18" version="1.1" xmlns="http://www.w3.org/2000/svg" xmlns:xlink="http://www.w3.org/1999/xlink">
    <!-- Generator: Sketch 41 (35326) - http://www.bohemiancoding.com/sketch -->
    <title>Fill 760</title>
    <desc>Created with Sketch.</desc>
    <defs></defs>
    <g id="Page-1" stroke="none" stroke-width="1" fill="none" fill-rule="evenodd">
        <g id="Main" transform="translate(-1366.000000, -5590.000000)" fill="#FFFFFF">
            <g id="contacts" transform="translate(0.000000, 4717.000000)">
                <g id="Group-4" transform="translate(1350.000000, 856.000000)">
                    <path d="M30.256371,33.557294 L26.284371,29.635294 L34.318371,19.748294 L30.256371,33.556294 L30.256371,33.557294 Z M23.000371,27.746294 L32.415371,20.504294 L25.221371,29.359294 C25.221371,29.359294 25.221371,29.360294 25.220371,29.360294 L23.000371,32.092294 L23.000371,27.746294 Z M32.130371,19.461294 L22.406371,26.942294 L17.918371,25.446294 L32.130371,19.461294 Z M35.833371,17.127294 C35.690371,16.998294 35.485371,16.964294 35.306371,17.039294 L16.306371,25.039294 C16.114371,25.120294 15.992371,25.311294 16.000371,25.519294 C16.008371,25.727294 16.144371,25.909294 16.342371,25.974294 L22.000371,27.861294 L22.000371,33.500294 C22.000371,33.712294 22.133371,33.901294 22.333371,33.971294 C22.388371,33.991294 22.444371,34.000294 22.500371,34.000294 C22.649371,34.000294 22.791371,33.934294 22.888371,33.816294 L25.652371,30.414294 L30.149371,34.856294 C30.243371,34.950294 30.369371,34.999294 30.499371,34.999294 C30.541371,34.999294 30.583371,34.994294 30.624371,34.984294 C30.794371,34.940294 30.929371,34.809294 30.979371,34.640294 L35.979371,17.640294 C36.034371,17.455294 35.976371,17.255294 35.832371,17.126294 L35.833371,17.127294 Z" id="Fill-760"></path>
                </g>
            </g>
        </g>
    </g>
</svg>