<?xml version="1.0" encoding="UTF-8"?>
<svg width="19px" height="12px" viewBox="0 0 19 12" version="1.1" xmlns="http://www.w3.org/2000/svg" xmlns:xlink="http://www.w3.org/1999/xlink">
    <!-- Generator: Sketch 41 (35326) - http://www.bohemiancoding.com/sketch -->
    <title>Group 15</title>
    <desc>Created with Sketch.</desc>
    <defs></defs>
    <g id="Page-1" stroke="none" stroke-width="1" fill="none" fill-rule="evenodd">
        <g id="Main" transform="translate(-211.000000, -5529.000000)" fill="#FFFFFF">
            <g id="contacts" transform="translate(0.000000, 4717.000000)">
                <g id="Group-15" transform="translate(211.000000, 812.000000)">
                    <path d="M17.5,11 L1.5,11 C1.224,11 1,10.7776307 1,10.50364 L1,2 L8.391,6.8911317 C8.702,7.09662475 9.101,7.19986764 9.5,7.19986764 C9.899,7.19986764 10.298,7.09662475 10.609,6.8911317 L18,2 L18,10.50364 C18,10.7776307 17.776,11 17.5,11 L17.5,11 Z M16.9139306,1 C16.9436097,1 16.9713102,1.00289925 17,1.00773134 L9.5485686,5.86011114 C9.26167069,6.04662962 8.73832931,6.04662962 8.4514314,5.86011114 L1,1.00773134 C1.02770049,1.00289925 1.05639028,1 1.08606937,1 L16.9149199,1 L16.9139306,1 Z M17.5,0 L1.5,0 C0.673,0 0,0.673 0,1.5 L0,10.5 C0,11.327 0.673,12 1.5,12 L17.5,12 C18.327,12 19,11.327 19,10.5 L19,1.5 C19,0.673 18.327,0 17.5,0 L17.5,0 Z" id="Fill-757"></path>
                </g>
            </g>
        </g>
    </g>
</svg>